<svg width="37" height="36" viewBox="0 0 37 36" fill="none" xmlns="http://www.w3.org/2000/svg" class="h-10 w-10 text-hyperlink" stroke-width="1"><path fill-rule="evenodd" clip-rule="evenodd" d="M1.5 18C1.5 8.89744 8.98902 1.5 18.25 1.5C27.511 1.5 35 8.89744 35 18C35 27.1026 27.511 34.5 18.25 34.5C8.98902 34.5 1.5 27.1026 1.5 18ZM18.25 0C8.18101 0 0 8.04874 0 18C0 27.9513 8.18101 36 18.25 36C28.319 36 36.5 27.9513 36.5 18C36.5 8.04874 28.319 0 18.25 0ZM13.484 13.2986C13.6419 12.9107 13.4449 12.4669 13.0439 12.3073C12.643 12.1477 12.1899 12.3328 12.032 12.7207C10.5317 16.4069 11.2505 20.6349 13.6717 23.1506C13.9685 23.459 14.4624 23.4785 14.7748 23.1943C15.0872 22.91 15.0998 22.4295 14.8029 22.1211C12.8596 20.1019 12.1722 16.5215 13.484 13.2986ZM18.5472 14.117C17.6057 13.3482 16.5824 13.2914 15.7613 13.494C14.9769 13.6875 14.3541 14.1178 14.0557 14.4001C13.7468 14.6925 13.7385 15.1746 14.0372 15.4769C14.3359 15.7793 14.8286 15.7874 15.1375 15.495C15.2766 15.3634 15.6663 15.0881 16.1417 14.9708C16.581 14.8625 17.0648 14.8901 17.5501 15.2864C18.4825 16.0477 19.5066 16.1316 20.3371 15.9442C21.1247 15.7666 21.7852 15.3371 22.1096 14.9668C22.3893 14.6475 22.3515 14.1668 22.0252 13.893C21.6989 13.6193 21.2077 13.6562 20.928 13.9755C20.8792 14.0312 20.7642 14.1245 20.6052 14.2166C20.4443 14.3096 20.2326 14.4048 19.9875 14.4601C19.5438 14.5602 19.0417 14.5208 18.5472 14.117ZM23.1043 12.3073C22.7033 12.4669 22.5063 12.9107 22.6641 13.2986C23.9759 16.5215 23.2886 20.1019 21.3452 22.1211C21.0484 22.4295 21.061 22.91 21.3734 23.1943C21.6858 23.4785 22.1797 23.459 22.4765 23.1506C24.8977 20.6349 25.6165 16.4069 24.1161 12.7207C23.9582 12.3328 23.5052 12.1477 23.1043 12.3073ZM16.6065 22.7269C16.1767 22.7269 15.8283 23.0679 15.8283 23.4885C15.8283 23.9091 16.1767 24.25 16.6065 24.25H19.4907C19.9205 24.25 20.2689 23.9091 20.2689 23.4885C20.2689 23.0679 19.9205 22.7269 19.4907 22.7269H16.6065ZM26.1929 15.4324V15.3803C26.1929 14.9597 26.5413 14.6188 26.9711 14.6188C27.4008 14.6188 27.7492 14.9597 27.7492 15.3803V15.4324C27.7492 15.853 27.4008 16.1939 26.9711 16.1939C26.5413 16.1939 26.1929 15.853 26.1929 15.4324ZM27.0534 17.9416C26.626 17.8975 26.243 18.2008 26.1979 18.6191C26.126 19.2869 25.9348 19.9318 25.7555 20.4188C25.6667 20.6599 25.5829 20.8568 25.5222 20.9916C25.4925 21.0575 25.462 21.1231 25.4296 21.1877L25.4294 21.1881C25.2363 21.5636 25.3907 22.0213 25.7744 22.2104C26.1563 22.3987 26.6214 22.2501 26.8165 21.8786C26.8165 21.8786 26.9054 21.6967 26.9462 21.606C27.0191 21.4442 27.1168 21.2144 27.2197 20.9351C27.4236 20.3813 27.656 19.6105 27.7456 18.7788C27.7907 18.3605 27.4808 17.9857 27.0534 17.9416Z" fill="#98FF99"/></svg>